<?xml version="1.0" standalone="no"?><svg xmlns="http://www.w3.org/2000/svg" viewBox="0 0 1440 320"><path fill="#148700" fill-opacity="1" d="M0,0L40,16C80,32,160,64,240,101.3C320,139,400,181,480,208C560,235,640,245,720,250.7C800,256,880,256,960,229.3C1040,203,1120,149,1200,149.3C1280,149,1360,203,1400,229.3L1440,256L1440,320L1400,320C1360,320,1280,320,1200,320C1120,320,1040,320,960,320C880,320,800,320,720,320C640,320,560,320,480,320C400,320,320,320,240,320C160,320,80,320,40,320L0,320Z"></path></svg>